<svg width="100%" height="100%" viewBox="0 0 24 24" fill="none" xmlns="http://www.w3.org/2000/svg">
<path d="M12 21C13.9969 20.9997 15.937 20.3353 17.5149 19.1114C19.0927 17.8874 20.2187 16.1735 20.7156 14.2394C21.2125 12.3053 21.052 10.2608 20.2594 8.42794C19.4669 6.59504 18.0872 5.07779 16.3377 4.11504C14.5882 3.15229 12.5682 2.79873 10.5957 3.11002C8.6232 3.42131 6.81024 4.37977 5.44225 5.8345C4.07425 7.28923 3.22892 9.15762 3.03932 11.1455C2.84973 13.1334 3.32665 15.1279 4.395 16.815L3 21L7.185 19.605C8.62458 20.5187 10.295 21.0026 12 21Z" fill="currentColor" stroke="currentColor" stroke-width="2" stroke-linecap="round" stroke-linejoin="round"/>
</svg>
