<svg width="100%" height="100%" viewBox="0 0 36 36" fill="none" xmlns="http://www.w3.org/2000/svg">
<path d="M18 3C26.2845 3 33 9.7155 33 18C33 26.2845 26.2845 33 18 33C15.2673 33.0042 12.5858 32.2581 10.248 30.843L5.70001 32.181C5.43889 32.2578 5.16189 32.2629 4.89814 32.1956C4.63438 32.1284 4.39362 31.9913 4.20115 31.7989C4.00868 31.6064 3.87162 31.3656 3.80438 31.1019C3.73713 30.8381 3.74219 30.5611 3.81901 30.3L5.15701 25.752C3.74259 23.4139 2.99653 20.7326 3.00001 18C3.00001 9.7155 9.71551 3 18 3Z" fill="currentColor"/>
</svg>
