<svg width="100%" height="100%" viewBox="0 0 24 24" fill="none" xmlns="http://www.w3.org/2000/svg">
<path fill-rule="evenodd" clip-rule="evenodd" d="M12 2.5C6.47721 2.5 2 6.97721 2 12.5C2 14.2265 2.43814 15.8535 3.2093 17.2721L2.47721 21.2098C2.45661 21.321 2.46338 21.4356 2.49695 21.5437C2.53052 21.6518 2.58988 21.7501 2.6699 21.8301C2.74992 21.9101 2.8482 21.9695 2.95627 22.003C3.06434 22.0366 3.17896 22.0434 3.29023 22.0228L7.22791 21.2898C8.69217 22.0864 10.3331 22.5025 12 22.5C17.5228 22.5 22 18.0228 22 12.5C22 6.97721 17.5228 2.5 12 2.5ZM12.6977 9.7093C12.6977 9.52426 12.6242 9.34681 12.4933 9.21597C12.3625 9.08513 12.185 9.01162 12 9.01162C11.815 9.01162 11.6375 9.08513 11.5067 9.21597C11.3758 9.34681 11.3023 9.52426 11.3023 9.7093V11.8023H9.2093C9.02427 11.8023 8.84681 11.8758 8.71597 12.0067C8.58513 12.1375 8.51163 12.315 8.51163 12.5C8.51163 12.685 8.58513 12.8625 8.71597 12.9933C8.84681 13.1242 9.02427 13.1977 9.2093 13.1977H11.3023V15.2907C11.3023 15.4757 11.3758 15.6532 11.5067 15.784C11.6375 15.9149 11.815 15.9884 12 15.9884C12.185 15.9884 12.3625 15.9149 12.4933 15.784C12.6242 15.6532 12.6977 15.4757 12.6977 15.2907V13.1977H14.7907C14.9757 13.1977 15.1532 13.1242 15.284 12.9933C15.4149 12.8625 15.4884 12.685 15.4884 12.5C15.4884 12.315 15.4149 12.1375 15.284 12.0067C15.1532 11.8758 14.9757 11.8023 14.7907 11.8023H12.6977V9.7093Z" fill="currentColor"/>
</svg>
