<svg width="100%" height="100%" viewBox="0 0 36 36" fill="none" xmlns="http://www.w3.org/2000/svg">
<path d="M18 3C26.2845 3 33 9.7155 33 18C33 26.2845 26.2845 33 18 33C15.2673 33.0042 12.5858 32.2581 10.248 30.843L5.70001 32.181C5.43889 32.2578 5.16189 32.2629 4.89814 32.1956C4.63438 32.1284 4.39362 31.9913 4.20115 31.7989C4.00868 31.6064 3.87162 31.3656 3.80438 31.1019C3.73713 30.8381 3.74219 30.5611 3.81901 30.3L5.15701 25.752C3.74259 23.4139 2.99653 20.7326 3.00001 18C3.00001 9.7155 9.71551 3 18 3ZM12.75 15.75C12.1533 15.75 11.581 15.9871 11.159 16.409C10.7371 16.831 10.5 17.4033 10.5 18C10.5 18.5967 10.7371 19.169 11.159 19.591C11.581 20.0129 12.1533 20.25 12.75 20.25C13.3467 20.25 13.919 20.0129 14.341 19.591C14.763 19.169 15 18.5967 15 18C15 17.4033 14.763 16.831 14.341 16.409C13.919 15.9871 13.3467 15.75 12.75 15.75ZM23.25 15.75C22.6533 15.75 22.081 15.9871 21.659 16.409C21.2371 16.831 21 17.4033 21 18C21 18.5967 21.2371 19.169 21.659 19.591C22.081 20.0129 22.6533 20.25 23.25 20.25C23.8467 20.25 24.419 20.0129 24.841 19.591C25.263 19.169 25.5 18.5967 25.5 18C25.5 17.4033 25.263 16.831 24.841 16.409C24.419 15.9871 23.8467 15.75 23.25 15.75Z" fill="currentColor"/>
</svg>
