<svg width="100%" height="100%" viewBox="0 0 24 24" fill="none" xmlns="http://www.w3.org/2000/svg">
<path fill-rule="evenodd" clip-rule="evenodd" d="M12 1.75C6.063 1.75 1.25 6.563 1.25 12.5C1.25 14.356 1.721 16.105 2.55 17.63L1.763 21.863C1.74085 21.9826 1.74814 22.1058 1.78422 22.222C1.82031 22.3382 1.88412 22.4438 1.97014 22.5299C2.05616 22.6159 2.16181 22.6797 2.27799 22.7158C2.39417 22.7519 2.51738 22.7591 2.637 22.737L6.87 21.949C8.44408 22.8054 10.208 23.2527 12 23.25C17.937 23.25 22.75 18.437 22.75 12.5C22.75 6.563 17.937 1.75 12 1.75ZM12.75 9.5C12.75 9.30109 12.671 9.11032 12.5303 8.96967C12.3897 8.82902 12.1989 8.75 12 8.75C11.8011 8.75 11.6103 8.82902 11.4697 8.96967C11.329 9.11032 11.25 9.30109 11.25 9.5V11.75H9C8.80109 11.75 8.61032 11.829 8.46967 11.9697C8.32902 12.1103 8.25 12.3011 8.25 12.5C8.25 12.6989 8.32902 12.8897 8.46967 13.0303C8.61032 13.171 8.80109 13.25 9 13.25H11.25V15.5C11.25 15.6989 11.329 15.8897 11.4697 16.0303C11.6103 16.171 11.8011 16.25 12 16.25C12.1989 16.25 12.3897 16.171 12.5303 16.0303C12.671 15.8897 12.75 15.6989 12.75 15.5V13.25H15C15.1989 13.25 15.3897 13.171 15.5303 13.0303C15.671 12.8897 15.75 12.6989 15.75 12.5C15.75 12.3011 15.671 12.1103 15.5303 11.9697C15.3897 11.829 15.1989 11.75 15 11.75H12.75V9.5Z" fill="currentColor"/>
</svg>
