<svg width="100%" height="100%" viewBox="0 0 36 36" fill="none" xmlns="http://www.w3.org/2000/svg">
<g clip-path="url(#clip0_44_555)">
<path fill-rule="evenodd" clip-rule="evenodd" d="M18 3C26.2845 3 33 9.7155 33 18C33 26.2845 26.2845 33 18 33C15.2673 33.0042 12.5858 32.2581 10.248 30.843L5.70001 32.181C5.43889 32.2578 5.16189 32.2629 4.89814 32.1956C4.63438 32.1284 4.39362 31.9913 4.20115 31.7989C4.00868 31.6064 3.87162 31.3656 3.80438 31.1019C3.73713 30.8381 3.74219 30.5611 3.81901 30.3L5.15701 25.752C3.74259 23.4139 2.99653 20.7326 3.00001 18C3.00001 9.7155 9.71551 3 18 3ZM18.7399 13.074C18.9361 13.2702 19.0464 13.5364 19.0464 13.814V15.3837V16.9535H22.1859C22.4635 16.9535 22.7297 17.0637 22.9259 17.26C23.1222 17.4563 23.2325 17.7224 23.2325 18C23.2325 18.2775 23.1222 18.5437 22.9259 18.74C22.7297 18.9362 22.4635 19.0465 22.1859 19.0465H20.6162H19.0464V22.186C19.0464 22.4636 18.9361 22.7298 18.7399 22.926C18.5436 23.1223 18.2774 23.2326 17.9999 23.2326C17.7223 23.2326 17.4562 23.1223 17.2599 22.926C17.0636 22.7298 16.9534 22.4636 16.9534 22.186V19.0465H13.8138C13.5363 19.0465 13.2701 18.9362 13.0739 18.74C12.8776 18.5437 12.7673 18.2775 12.7673 18C12.7673 17.7224 12.8776 17.4563 13.0739 17.26C13.2701 17.0637 13.5363 16.9535 13.8138 16.9535H16.9534V13.814C16.9534 13.5364 17.0636 13.2702 17.2599 13.074C17.4562 12.8777 17.7223 12.7674 17.9999 12.7674C18.2774 12.7674 18.5436 12.8777 18.7399 13.074Z" fill="currentColor"/>
</g>
<defs>
<clipPath id="clip0_44_555">
<rect width="30" height="30" fill="currentColor" transform="translate(3 3)"/>
</clipPath>
</defs>
</svg>
