<svg width="100%" height="100%" viewBox="0 0 24 24" fill="none" xmlns="http://www.w3.org/2000/svg">
<g clip-path="url(#clip0_8_20)">
<path d="M12 1C13.5913 1 15.1174 1.63214 16.2426 2.75736C17.3679 3.88258 18 5.4087 18 7C18 8.5913 17.3679 10.1174 16.2426 11.2426C15.1174 12.3679 13.5913 13 12 13C10.4087 13 8.88258 12.3679 7.75736 11.2426C6.63214 10.1174 6 8.5913 6 7C6 5.4087 6.63214 3.88258 7.75736 2.75736C8.88258 1.63214 10.4087 1 12 1ZM12 16C18.63 16 24 18.685 24 22V25H0V22C0 18.685 5.37 16 12 16Z" fill="currentColor"/>
</g>
<defs>
<clipPath id="clip0_8_20">
<rect width="24" height="24" fill="white" transform="translate(0 0.5)"/>
</clipPath>
</defs>
</svg>
