<svg width="100%" height="100%" viewBox="0 0 18 18" fill="none" xmlns="http://www.w3.org/2000/svg">
<path d="M6.17947 0.493612C4.32257 1.12486 2.72118 2.32298 1.61052 3.91199C0.499857 5.501 -0.0615283 7.39715 0.00881923 9.32192C0.0791668 11.2467 0.77754 13.0986 2.00136 14.6057C3.22518 16.1128 4.90993 17.1956 6.80816 17.695C8.3471 18.0842 9.95945 18.1013 11.5066 17.7448C12.9082 17.4363 14.204 16.7764 15.2671 15.8298C16.3736 14.8144 17.1768 13.5227 17.5902 12.0935C18.0396 10.5394 18.1196 8.905 17.824 7.31585H9.18207V10.8287H14.1869C14.0869 11.389 13.8725 11.9237 13.5567 12.4009C13.2408 12.8781 12.83 13.288 12.3487 13.606C11.7376 14.0021 11.0487 14.2687 10.3262 14.3885C9.6016 14.5205 8.85837 14.5205 8.13378 14.3885C7.39937 14.2397 6.70464 13.9427 6.09381 13.5163C5.11252 12.8357 4.3757 11.8686 3.98851 10.7533C3.59476 9.61705 3.59476 8.38522 3.98851 7.24898C4.26412 6.45253 4.71975 5.72736 5.32138 5.12761C6.00988 4.42866 6.88153 3.92905 7.84071 3.6836C8.79989 3.43814 9.80954 3.45631 10.7589 3.73613C11.5005 3.95921 12.1786 4.34898 12.7393 4.87436C13.3036 4.32421 13.867 3.77265 14.4294 3.21966C14.7197 2.9223 15.0363 2.63917 15.3223 2.33469C14.4665 1.55426 13.4619 0.946991 12.3662 0.547678C10.3708 -0.162305 8.18746 -0.181385 6.17947 0.493612Z" fill="white"/>
<path d="M6.17957 0.493388C8.1874 -0.182068 10.3707 -0.16349 12.3663 0.546031C13.4622 0.948057 14.4663 1.55825 15.3209 2.34158C15.0306 2.64606 14.7242 2.93061 14.428 3.22655C13.8647 3.77764 13.3018 4.32683 12.7394 4.87413C12.1787 4.34875 11.5006 3.95899 10.759 3.73591C9.80995 3.45511 8.80034 3.43588 7.8409 3.68034C6.88147 3.92479 6.00928 4.42348 5.32003 5.1217C4.71839 5.72145 4.26277 6.44661 3.98715 7.24306L0.977295 4.9595C2.05464 2.86596 3.92 1.26457 6.17957 0.493388Z" fill="#E33629"/>
<path d="M0.180036 7.222C0.341812 6.43633 0.610394 5.67547 0.978599 4.95978L3.98846 7.24903C3.59471 8.38527 3.59471 9.6171 3.98846 10.7533C2.98565 11.5122 1.98237 12.2748 0.978599 13.0412C0.05684 11.2432 -0.22428 9.19469 0.180036 7.222Z" fill="#F8BD00"/>
<path d="M9.18326 7.31433H17.8252C18.1208 8.90348 18.0408 10.5379 17.5914 12.092C17.178 13.5212 16.3748 14.8129 15.2683 15.8283C14.297 15.0856 13.3213 14.3486 12.3499 13.6059C12.8315 13.2876 13.2425 12.8773 13.5584 12.3995C13.8742 11.9218 14.0884 11.3865 14.1881 10.8258H9.18326C9.18181 9.65623 9.18326 8.48528 9.18326 7.31433Z" fill="#587DBD"/>
<path d="M0.976562 13.0401C1.98033 12.2813 2.98362 11.5187 3.98642 10.7523C4.37439 11.868 5.11226 12.8351 6.09463 13.5153C6.70735 13.9397 7.40359 14.2343 8.13895 14.3804C8.86355 14.5124 9.60677 14.5124 10.3314 14.3804C11.0538 14.2605 11.7428 13.994 12.3539 13.5978C13.3253 14.3405 14.301 15.0775 15.2723 15.8202C14.2093 16.7674 12.9135 17.4278 11.5118 17.7367C9.96462 18.0931 8.35227 18.076 6.81333 17.6869C5.59618 17.3684 4.45928 16.807 3.47389 16.0379C2.43091 15.2265 1.57905 14.2039 0.976562 13.0401Z" fill="#319F43"/>
</svg>
