<svg width="100%" height="100%" viewBox="0 0 24 24" fill="none" xmlns="http://www.w3.org/2000/svg">
<path d="M16.0605 21.546C16.3417 21.2648 16.4997 20.8833 16.4997 20.4855C16.4997 20.0878 16.3417 19.7063 16.0605 19.425L8.63551 12L16.0605 4.57505C16.3337 4.29215 16.4849 3.91324 16.4815 3.51995C16.4781 3.12665 16.3204 2.75043 16.0422 2.47232C15.7641 2.19421 15.3879 2.03646 14.9946 2.03304C14.6013 2.02962 14.2224 2.18081 13.9395 2.45405L5.45401 10.9396C5.1728 11.2208 5.01483 11.6023 5.01483 12C5.01483 12.3978 5.1728 12.7793 5.45401 13.0605L13.9395 21.546C14.2208 21.8273 14.6023 21.9852 15 21.9852C15.3978 21.9852 15.7792 21.8273 16.0605 21.546Z" fill="currentColor"/>
</svg>
