<svg width="100%" height="100%" viewBox="0 0 94 42" fill="none" xmlns="http://www.w3.org/2000/svg">
<path d="M21.2282 1.24692C32.1378 1.24692 40.9813 10.0904 40.9813 21C40.9813 31.9096 32.1378 40.7531 21.2282 40.7531C17.6295 40.7587 14.0984 39.7761 11.0198 37.9126L5.03067 39.6746C4.6868 39.7757 4.32203 39.7824 3.9747 39.6938C3.62737 39.6053 3.31031 39.4248 3.05686 39.1713C2.8034 38.9179 2.62291 38.6008 2.53436 38.2535C2.44581 37.9062 2.45247 37.5414 2.55363 37.1975L4.31561 31.2084C2.453 28.1294 1.47053 24.5985 1.47511 21C1.47511 10.0904 10.3186 1.24692 21.2282 1.24692ZM14.3146 18.037C13.5288 18.037 12.7751 18.3492 12.2195 18.9049C11.6638 19.4605 11.3517 20.2142 11.3517 21C11.3517 21.7858 11.6638 22.5395 12.2195 23.0951C12.7751 23.6508 13.5288 23.963 14.3146 23.963C15.1004 23.963 15.8541 23.6508 16.4097 23.0951C16.9654 22.5395 17.2776 21.7858 17.2776 21C17.2776 20.2142 16.9654 19.4605 16.4097 18.9049C15.8541 18.3492 15.1004 18.037 14.3146 18.037ZM28.1418 18.037C27.3559 18.037 26.6023 18.3492 26.0466 18.9049C25.491 19.4605 25.1788 20.2142 25.1788 21C25.1788 21.7858 25.491 22.5395 26.0466 23.0951C26.6023 23.6508 27.3559 23.963 28.1418 23.963C28.9276 23.963 29.6812 23.6508 30.2369 23.0951C30.7926 22.5395 31.1047 21.7858 31.1047 21C31.1047 20.2142 30.7926 19.4605 30.2369 18.9049C29.6812 18.3492 28.9276 18.037 28.1418 18.037Z" fill="#F7F7F7"/>
<path d="M80.4873 16.0617C73.6688 16.0617 68.1416 21.5889 68.1416 28.4074C68.1416 35.2259 73.6688 40.7531 80.4873 40.7531C82.7365 40.7566 84.9434 40.1425 86.8676 38.9778L90.6108 40.079C90.8257 40.1423 91.0537 40.1464 91.2708 40.0911C91.4878 40.0357 91.686 39.9229 91.8444 39.7645C92.0028 39.6061 92.1156 39.4079 92.171 39.1909C92.2263 38.9738 92.2222 38.7458 92.1589 38.5309L91.0577 34.7877C92.2218 32.8633 92.8359 30.6565 92.833 28.4074C92.833 21.5889 87.3058 16.0617 80.4873 16.0617ZM84.8083 26.5556C85.2994 26.5556 85.7705 26.7507 86.1178 27.098C86.4651 27.4453 86.6602 27.9163 86.6602 28.4074C86.6602 28.8986 86.4651 29.3696 86.1178 29.7169C85.7705 30.0642 85.2994 30.2593 84.8083 30.2593C84.3172 30.2593 83.8461 30.0642 83.4988 29.7169C83.1516 29.3696 82.9565 28.8986 82.9565 28.4074C82.9565 27.9163 83.1516 27.4453 83.4988 27.098C83.8461 26.7507 84.3172 26.5556 84.8083 26.5556ZM76.1663 26.5556C76.6575 26.5556 77.1285 26.7507 77.4758 27.098C77.8231 27.4453 78.0182 27.9163 78.0182 28.4074C78.0182 28.8986 77.8231 29.3696 77.4758 29.7169C77.1285 30.0642 76.6575 30.2593 76.1663 30.2593C75.6752 30.2593 75.2042 30.0642 74.8569 29.7169C74.5096 29.3696 74.3145 28.8986 74.3145 28.4074C74.3145 27.9163 74.5096 27.4453 74.8569 27.098C75.2042 26.7507 75.6752 26.5556 76.1663 26.5556Z" fill="#F7F7F7"/>
<path d="M52.0923 34.5803V23.4692" stroke="#FF7700" stroke-width="2.46914" stroke-linecap="round"/>
<path d="M57.0308 37.0494V28.4074" stroke="#FF7700" stroke-width="2.46914" stroke-linecap="round"/>
<path d="M61.9688 33.3457V25.9383" stroke="#FF7700" stroke-width="2.46914" stroke-linecap="round"/>
<path d="M47.1543 32.1111V25.9383" stroke="#FF7700" stroke-width="2.46914" stroke-linecap="round"/>
</svg>
