<svg width="100%" height="100%" viewBox="0 0 235 80" fill="none" xmlns="http://www.w3.org/2000/svg">
<path d="M40.5 0.5C62.592 0.5 80.5 18.408 80.5 40.5C80.5 62.592 62.592 80.5 40.5 80.5C33.2127 80.5113 26.0622 78.5217 19.828 74.748L7.70003 78.316C7.0037 78.5208 6.26504 78.5343 5.5617 78.355C4.85836 78.1757 4.21632 77.8102 3.70307 77.2969C3.18982 76.7837 2.82433 76.1416 2.64501 75.4383C2.46569 74.735 2.47917 73.9963 2.68403 73.3L6.25203 61.172C2.48025 54.937 0.49075 47.787 0.500032 40.5C0.500032 18.408 18.408 0.5 40.5 0.5ZM26.5 34.5C24.9087 34.5 23.3826 35.1321 22.2574 36.2573C21.1322 37.3826 20.5 38.9087 20.5 40.5C20.5 42.0913 21.1322 43.6174 22.2574 44.7426C23.3826 45.8678 24.9087 46.5 26.5 46.5C28.0913 46.5 29.6174 45.8678 30.7427 44.7426C31.8679 43.6174 32.5 42.0913 32.5 40.5C32.5 38.9087 31.8679 37.3826 30.7427 36.2573C29.6174 35.1321 28.0913 34.5 26.5 34.5ZM54.5 34.5C52.9087 34.5 51.3826 35.1321 50.2574 36.2573C49.1322 37.3826 48.5 38.9087 48.5 40.5C48.5 42.0913 49.1322 43.6174 50.2574 44.7426C51.3826 45.8678 52.9087 46.5 54.5 46.5C56.0913 46.5 57.6174 45.8678 58.7426 44.7426C59.8679 43.6174 60.5 42.0913 60.5 40.5C60.5 38.9087 59.8679 37.3826 58.7426 36.2573C57.6174 35.1321 56.0913 34.5 54.5 34.5Z" fill="#F7F7F7"/>
<path d="M160.5 30.5C146.692 30.5 135.5 41.6925 135.5 55.5C135.5 69.3075 146.692 80.5 160.5 80.5C165.055 80.5071 169.524 79.2636 173.42 76.905L181 79.135C181.435 79.263 181.897 79.2715 182.336 79.1594C182.776 79.0473 183.177 78.8189 183.498 78.4981C183.819 78.1773 184.047 77.7761 184.159 77.3365C184.271 76.8969 184.263 76.4352 184.135 76L181.905 68.42C184.262 64.5232 185.506 60.0544 185.5 55.5C185.5 41.6925 174.307 30.5 160.5 30.5ZM169.25 51.75C170.245 51.75 171.198 52.1451 171.902 52.8484C172.605 53.5516 173 54.5054 173 55.5C173 56.4946 172.605 57.4484 171.902 58.1517C171.198 58.8549 170.245 59.25 169.25 59.25C168.255 59.25 167.302 58.8549 166.598 58.1517C165.895 57.4484 165.5 56.4946 165.5 55.5C165.5 54.5054 165.895 53.5516 166.598 52.8484C167.302 52.1451 168.255 51.75 169.25 51.75ZM151.75 51.75C152.745 51.75 153.698 52.1451 154.402 52.8484C155.105 53.5516 155.5 54.5054 155.5 55.5C155.5 56.4946 155.105 57.4484 154.402 58.1517C153.698 58.8549 152.745 59.25 151.75 59.25C150.755 59.25 149.802 58.8549 149.098 58.1517C148.395 57.4484 148 56.4946 148 55.5C148 54.5054 148.395 53.5516 149.098 52.8484C149.802 52.1451 150.755 51.75 151.75 51.75Z" fill="#F7F7F7"/>
<path fill-rule="evenodd" clip-rule="evenodd" d="M198.738 3.12002C203.867 1.36659 209.054 0.49045 214.25 0.500079C219.529 0.500079 224.71 1.40006 229.763 3.12002C233.155 4.27499 235.5 10.5699 235.5 17.6297V43.3691C235.5 50.434 233.155 56.7188 229.763 57.8788C225.712 59.262 221.625 60.0987 217.525 60.3837C217.057 60.4082 216.612 60.8087 216.278 61.5037L207.828 79.4033C207.58 79.9274 207.264 80.2841 206.921 80.4284C206.577 80.5726 206.221 80.4979 205.898 80.2138C205.574 79.9296 205.298 79.4487 205.104 78.8319C204.909 78.215 204.805 77.49 204.806 76.7484V59.5338C202.775 59.1193 200.751 58.569 198.738 57.8838C195.345 56.7188 193 50.429 193 43.3641V17.6297C193 10.5649 195.345 4.27999 198.738 3.12002Z" fill="#F7F7F7"/>
<path d="M210 45.25C210 44.1167 210.4 43.15 211.2 42.35C212 41.5167 212.933 41.1 214 41.1C215.067 41.1 215.867 41.4 216.4 42C216.967 42.5667 217.25 43.4167 217.25 44.55C217.25 45.6833 216.867 46.6833 216.1 47.55C215.333 48.3833 214.417 48.8 213.35 48.8C212.317 48.8 211.5 48.4833 210.9 47.85C210.3 47.2167 210 46.35 210 45.25ZM219.35 13.5L216.55 35.65L211.8 36.35V14.75L219.35 13.5Z" fill="#FF7700"/>
<path d="M103 68V45.5" stroke="#FF7700" stroke-width="5" stroke-linecap="round"/>
<path d="M113 73V55.5" stroke="#FF7700" stroke-width="5" stroke-linecap="round"/>
<path d="M123 65.5V50.5" stroke="#FF7700" stroke-width="5" stroke-linecap="round"/>
<path d="M93 63V50.5" stroke="#FF7700" stroke-width="5" stroke-linecap="round"/>
</svg>
